<?xml version="1.0" encoding="UTF-8" standalone="no"?>
<!-- Created with Inkscape (http://www.inkscape.org/) -->

<svg
   xmlns:dc="http://purl.org/dc/elements/1.1/"
   xmlns:cc="http://creativecommons.org/ns#"
   xmlns:rdf="http://www.w3.org/1999/02/22-rdf-syntax-ns#"
   xmlns:svg="http://www.w3.org/2000/svg"
   xmlns="http://www.w3.org/2000/svg"
   xmlns:xlink="http://www.w3.org/1999/xlink"
   xmlns:sodipodi="http://sodipodi.sourceforge.net/DTD/sodipodi-0.dtd"
   xmlns:inkscape="http://www.inkscape.org/namespaces/inkscape"
   width="10.305518mm"
   height="10.305514mm"
   viewBox="0 0 10.305519 10.305514"
   version="1.1"
   id="svg8"
   inkscape:version="0.92.4 (5da689c313, 2019-01-14)"
   sodipodi:docname="Logo.svg"
   inkscape:export-filename="D:\Mitarbeiter\Kaupenjohann\09_GIT\GoogleImageWebScraper\ScrapperApp\data\Logo.png"
   inkscape:export-xdpi="630.96002"
   inkscape:export-ydpi="630.96002">
  <defs
     id="defs2">
    <path
       style="fill:none;stroke:#000000;stroke-width:0.26458332px;stroke-linecap:butt;stroke-linejoin:miter;stroke-opacity:1"
       d="m 57.157654,98.999957 3.464101,2.000003 3.464102,-2.000003"
       id="path901-6"
       inkscape:connector-curvature="0" />
    <path
       style="fill:none;stroke:#000000;stroke-width:0.26458332px;stroke-linecap:butt;stroke-linejoin:miter;stroke-opacity:1"
       d="m 57.157654,98.999957 3.464101,2.000003 3.464102,-2.000003"
       id="path901-3"
       inkscape:connector-curvature="0" />
  </defs>
  <sodipodi:namedview
     id="base"
     pagecolor="#ffffff"
     bordercolor="#666666"
     borderopacity="1.0"
     inkscape:pageopacity="0.0"
     inkscape:pageshadow="2"
     inkscape:zoom="16"
     inkscape:cx="19.357728"
     inkscape:cy="23.416309"
     inkscape:document-units="mm"
     inkscape:current-layer="layer1"
     showgrid="true"
     fit-margin-top="0"
     fit-margin-left="0.69034"
     fit-margin-right="0.69034"
     fit-margin-bottom="0"
     inkscape:window-width="1920"
     inkscape:window-height="1017"
     inkscape:window-x="-8"
     inkscape:window-y="-8"
     inkscape:window-maximized="1"
     units="mm">
    <inkscape:grid
       type="axonomgrid"
       id="grid3717"
       units="mm"
       empspacing="5"
       originx="-55.469042"
       originy="-194.8472"
       spacingy="0.1" />
  </sodipodi:namedview>
  <metadata
     id="metadata5">
    <rdf:RDF>
      <cc:Work
         rdf:about="">
        <dc:format>image/svg+xml</dc:format>
        <dc:type
           rdf:resource="http://purl.org/dc/dcmitype/StillImage" />
        <dc:title></dc:title>
      </cc:Work>
    </rdf:RDF>
  </metadata>
  <g
     inkscape:label="Ebene 1"
     inkscape:groupmode="layer"
     id="layer1"
     transform="translate(-55.469019,-91.847243)">
    <path
       style="fill:none;stroke:#000000;stroke-width:0.26458332px;stroke-linecap:butt;stroke-linejoin:miter;stroke-opacity:1"
       d="m 57.157654,98.999945 2.598076,1.500015"
       id="path956"
       inkscape:connector-curvature="0" />
    <path
       style="fill:none;stroke:#000000;stroke-width:0.26458332px;stroke-linecap:butt;stroke-linejoin:miter;stroke-opacity:1"
       d="m 61.487781,100.49996 2.598076,-1.500026"
       id="path966"
       inkscape:connector-curvature="0" />
    <path
       style="fill:#fdc000;fill-opacity:1;stroke:none;stroke-width:0.01670331;stroke-miterlimit:4;stroke-dasharray:none;stroke-dashoffset:0;stroke-opacity:1"
       d="m 11.250067,33.384262 -7.9426522,-4.583965 -0.00125,-9.204572 -0.00125,-9.204572 0.121534,0.06443 c 0.066844,0.03544 1.4440447,0.828749 3.0604466,1.762914 l 2.9389125,1.698483 0.011586,1.641172 c 0.00637,0.902645 0.00272,1.641172 -0.00813,1.641172 -0.010841,0 -0.7085603,-0.397807 -1.5504867,-0.884016 -0.8419268,-0.486209 -1.5691317,-0.904543 -1.6160111,-0.929632 -0.083645,-0.04477 -0.085212,-0.0058 -0.084001,2.088307 l 0.00123,2.133924 6.5395039,3.772312 6.539504,3.772312 v 0.569765 0.569766 h 0.219688 0.219688 l 0.01233,-0.578638 0.01233,-0.578638 6.496543,-3.751581 c 3.573099,-2.063369 6.511654,-3.756982 6.530121,-3.763583 0.01847,-0.0066 0.02841,-0.972005 0.0221,-2.145341 l -0.01148,-2.133339 -1.609074,0.929191 c -0.884991,0.511055 -1.616094,0.929191 -1.624674,0.929191 -0.0086,0 -0.01039,-0.739678 -0.004,-1.643729 l 0.01159,-1.643728 3.005203,-1.736319 c 1.652862,-0.954975 3.02012,-1.736681 3.03835,-1.737125 0.01823,-4.44e-4 0.03314,4.133654 0.03314,9.186885 v 9.187693 l -7.93079,4.578793 c -4.361936,2.518335 -7.941475,4.578792 -7.954531,4.578792 -0.01306,0 -0.0289,-0.96951 -0.03521,-2.154466 l -0.01147,-2.154466 h -0.198874 -0.198874 l -0.01147,2.154466 c -0.0063,1.184956 -0.0262,2.153935 -0.04419,2.153286 -0.018,-6.5e-4 -3.606919,-2.063965 -7.975378,-4.585146 z"
       id="path989"
       inkscape:connector-curvature="0"
       transform="matrix(0.26458333,0,0,0.26458333,55.469019,91.847243)" />
    <path
       style="fill:none;stroke:#000000;stroke-width:0.1;stroke-linecap:butt;stroke-linejoin:miter;stroke-opacity:1;stroke-miterlimit:4;stroke-dasharray:none"
       d="m 60.621777,92 -4.330126,2.499998 v 5 L 60.621777,102 64.951906,99.499998 v -5 z"
       id="path3719"
       inkscape:connector-curvature="0" />
    <path
       style="fill:none;stroke:#000000;stroke-width:0.1;stroke-linecap:butt;stroke-linejoin:miter;stroke-opacity:1;stroke-miterlimit:4;stroke-dasharray:none"
       d="m 60.621777,92 -4.330126,2.499998"
       id="path4536"
       inkscape:connector-curvature="0" />
    <path
       style="fill:#3fff80;fill-opacity:1;stroke:none;stroke-width:0.02952756;stroke-miterlimit:4;stroke-dasharray:none;stroke-dashoffset:0;stroke-opacity:1"
       d="m 225.00691,358.09049 c 0.0114,-7.9e-4 0.0289,-7.8e-4 0.0391,2e-5 0.0101,8e-4 8.4e-4,0.001 -0.0206,0.001 -0.0215,-1e-5 -0.0298,-6.6e-4 -0.0184,-0.001 z"
       id="path4540"
       inkscape:connector-curvature="0"
       transform="scale(0.26458333)" />
    <path
       style="fill:#3fff80;fill-opacity:1;stroke:none;stroke-width:0.02952756;stroke-miterlimit:4;stroke-dasharray:none;stroke-dashoffset:0;stroke-opacity:1"
       d="m 225.02051,358.09058 c 0.006,-9e-4 0.0147,-8.8e-4 0.0195,5e-5 0.005,9.3e-4 -5e-5,0.002 -0.0108,0.002 -0.0107,-3e-5 -0.0147,-7.9e-4 -0.009,-0.002 z"
       id="path4542"
       inkscape:connector-curvature="0"
       transform="scale(0.26458333)" />
    <path
       style="fill:#3fff80;fill-opacity:1;stroke:none;stroke-width:0.02952756;stroke-miterlimit:4;stroke-dasharray:none;stroke-dashoffset:0;stroke-opacity:1"
       d="m 225.02656,358.09071 c 0.003,-10e-4 0.006,-9.9e-4 0.007,3.1e-4 0.001,10e-4 -0.001,0.002 -0.005,0.002 -0.005,-1.9e-4 -0.005,-0.001 -0.002,-0.002 z"
       id="path4548"
       inkscape:connector-curvature="0"
       transform="scale(0.26458333)" />
    <path
       style="fill:none;stroke:#000000;stroke-width:0.1;stroke-linecap:butt;stroke-linejoin:miter;stroke-opacity:1;stroke-miterlimit:4;stroke-dasharray:none"
       d="m 56.291651,94.499998 1.73205,1 0.866026,-0.499999 1.73205,1.000001 1.732053,-1.000001 0.866023,0.499999 1.732053,-1"
       id="path4550"
       inkscape:connector-curvature="0" />
    <path
       style="fill:none;stroke:#000000;stroke-width:0.1;stroke-linecap:butt;stroke-linejoin:miter;stroke-opacity:1;stroke-miterlimit:4;stroke-dasharray:none"
       d="M 57.157675,96 58.023701,96.499999 58.889727,96 60.621777,96.999998 62.35383,96 63.219853,96.499999 64.085879,96 h 10e-7 v 1 l -3.464102,2 -3.464101,-2 z"
       id="path4582"
       inkscape:connector-curvature="0" />
    <path
       style="fill:none;stroke:#000000;stroke-width:0.1;stroke-linecap:butt;stroke-linejoin:miter;stroke-opacity:1;stroke-miterlimit:4;stroke-dasharray:none"
       d="M 60.621777,98.999999 V 102"
       id="path4584"
       inkscape:connector-curvature="0" />
    <path
       style="fill:none;stroke:#000000;stroke-width:0.1;stroke-linecap:butt;stroke-linejoin:miter;stroke-opacity:1;stroke-miterlimit:4;stroke-dasharray:none"
       d="m 58.023701,95.499998 v 1.000001"
       id="path4586"
       inkscape:connector-curvature="0" />
    <path
       style="fill:none;stroke:#000000;stroke-width:0.1;stroke-linecap:butt;stroke-linejoin:miter;stroke-opacity:1;stroke-miterlimit:4;stroke-dasharray:none"
       d="M 58.889727,94.999999 V 96"
       id="path4588"
       inkscape:connector-curvature="0" />
    <path
       style="fill:none;stroke:#000000;stroke-width:0.1;stroke-linecap:butt;stroke-linejoin:miter;stroke-opacity:1;stroke-miterlimit:4;stroke-dasharray:none"
       d="m 60.621777,96 v 0.999998"
       id="path4590"
       inkscape:connector-curvature="0" />
    <path
       style="fill:none;stroke:#000000;stroke-width:0.1;stroke-linecap:butt;stroke-linejoin:miter;stroke-opacity:1;stroke-miterlimit:4;stroke-dasharray:none"
       d="M 62.35383,94.999999 V 96"
       id="path4592"
       inkscape:connector-curvature="0" />
    <path
       style="fill:none;stroke:#000000;stroke-width:0.1;stroke-linecap:butt;stroke-linejoin:miter;stroke-opacity:1;stroke-miterlimit:4;stroke-dasharray:none"
       d="m 63.219853,95.499998 v 1.000001"
       id="path4594"
       inkscape:connector-curvature="0" />
    <text
       xml:space="preserve"
       style="font-style:normal;font-variant:normal;font-weight:normal;font-stretch:normal;font-size:10.58333302px;line-height:1.25;font-family:Arial;-inkscape-font-specification:Arial;letter-spacing:0px;word-spacing:0px;fill:#92843e;fill-opacity:1;stroke:none;stroke-width:0.26458332"
       id="text4622"
       x="1.8352819"
       y="6.0000448"><tspan
   id="tspan4620"
   style="font-style:normal;font-variant:normal;font-weight:normal;font-stretch:normal;font-size:2.11666656px;font-family:Nasalization;-inkscape-font-specification:Nasalization;fill:#92843e;fill-opacity:1;stroke:none;stroke-width:0.26458332;stroke-opacity:1">RO</tspan></text>
    <text
       xml:space="preserve"
       style="font-style:normal;font-variant:normal;font-weight:normal;font-stretch:normal;font-size:10.58333302px;line-height:1.25;font-family:Arial;-inkscape-font-specification:Arial;letter-spacing:0px;word-spacing:0px;fill:#ffffff;fill-opacity:1;stroke:none;stroke-width:0.26458332"
       x="60.323326"
       y="100.75834"
       id="text950"><tspan
         sodipodi:role="line"
         id="tspan948"
         x="60.323326"
         y="100.75834"
         style="font-style:normal;font-variant:normal;font-weight:normal;font-stretch:normal;font-size:2.11666656px;font-family:Nasalization;-inkscape-font-specification:Nasalization;fill:#ffffff;fill-opacity:1;stroke-width:0.26458332">I</tspan></text>
    <text
       xml:space="preserve"
       style="font-style:normal;font-variant:normal;font-weight:normal;font-stretch:normal;font-size:10.58333302px;line-height:1.25;font-family:Arial;-inkscape-font-specification:Arial;letter-spacing:0px;word-spacing:0px;fill:#000000;fill-opacity:1;stroke:none;stroke-width:0.26458332"
       id="text946"
       x="-0.15200955"
       y="0.046772167"
       transform="translate(-0.02338608,-0.10523738)"><textPath
         xlink:href="#path956"
         id="textPath960"
         style="font-style:normal;font-variant:normal;font-weight:normal;font-stretch:normal;font-size:2.11666656px;font-family:Nasalization;-inkscape-font-specification:Nasalization;fill:#ffffff;fill-opacity:1;stroke-width:0.26458332">RO</textPath></text>
    <text
       xml:space="preserve"
       style="font-style:normal;font-variant:normal;font-weight:normal;font-stretch:normal;font-size:10.58333302px;line-height:1.25;font-family:Arial;-inkscape-font-specification:Arial;letter-spacing:0px;word-spacing:0px;fill:#000000;fill-opacity:1;stroke:none;stroke-width:0.26458332"
       id="text954"
       x="-0.1403165"
       y="-0.15200955"
       transform="translate(-0.07600477,-0.07015825)"><textPath
         xlink:href="#path966"
         id="textPath968"
         style="font-style:normal;font-variant:normal;font-weight:normal;font-stretch:normal;font-size:2.11666656px;font-family:Nasalization;-inkscape-font-specification:Nasalization;fill:#ffffff;fill-opacity:1;stroke-width:0.26458332">SA</textPath></text>
    <path
       style="fill:#f2ff43;fill-opacity:1;stroke:none;stroke-width:0.01670331;stroke-miterlimit:4;stroke-dasharray:none;stroke-dashoffset:0;stroke-opacity:1"
       d="m 16.273241,13.600823 c -1.761617,-1.018108 -3.234328,-1.868899 -3.272691,-1.890647 -0.05192,-0.02943 -0.481266,0.19864 -1.679378,0.892099 -0.885296,0.512403 -1.6319487,0.932225 -1.6592293,0.932937 -0.04396,0.0011 -5.922452,-3.367926 -6.059897,-3.47304 -0.038605,-0.02952 2.2959527,-1.3994026 7.8665623,-4.6159638 4.356803,-2.5156892 7.944652,-4.58315862 7.972998,-4.59437668 0.05408,-0.0214034 15.924656,9.12124868 15.924656,9.17380748 0,0.03808 -6.008822,3.511061 -6.073451,3.510338 -0.02609,-3.09e-4 -0.763388,-0.414552 -1.638432,-0.920578 -0.875045,-0.506027 -1.610878,-0.91985 -1.635185,-0.919608 -0.03361,3.53e-4 -3.782489,2.151396 -6.298807,3.614175 l -0.244205,0.141961 z"
       id="path977"
       inkscape:connector-curvature="0"
       transform="matrix(0.26458333,0,0,0.26458333,55.469019,91.847243)" />
    <path
       style="fill:#f2ff43;fill-opacity:1;stroke:none;stroke-width:0.01670331;stroke-miterlimit:4;stroke-dasharray:none;stroke-dashoffset:0;stroke-opacity:1"
       d="m 27.623105,16.382082 -1.401292,-0.805277 -0.0019,-1.648841 c -10e-4,-0.906863 0.01304,-1.640702 0.03127,-1.630755 0.01823,0.0099 0.664569,0.381755 1.43631,0.826239 l 1.403165,0.808152 v 1.629146 c 0,0.896031 -0.01492,1.628576 -0.03315,1.62788 -0.01823,-6.98e-4 -0.663728,-0.363641 -1.434439,-0.806544 z"
       id="path981"
       inkscape:connector-curvature="0"
       transform="matrix(0.26458333,0,0,0.26458333,55.469019,91.847243)" />
    <path
       style="fill:#f2ff43;fill-opacity:1;stroke:none;stroke-width:0.01670331;stroke-miterlimit:4;stroke-dasharray:none;stroke-dashoffset:0;stroke-opacity:1"
       d="m 19.687837,17.453891 0.01159,-1.644077 2.828427,-1.633155 c 1.555635,-0.898235 2.932836,-1.692926 3.060447,-1.76598 l 0.232019,-0.132827 -0.0015,1.649477 -0.0015,1.649476 -3.028935,1.74567 c -1.665914,0.960118 -3.047666,1.75238 -3.07056,1.760582 -0.02569,0.0092 -0.03719,-0.614438 -0.03004,-1.629166 z"
       id="path983"
       inkscape:connector-curvature="0"
       transform="matrix(0.26458333,0,0,0.26458333,55.469019,91.847243)" />
    <path
       style="fill:#f2ff43;fill-opacity:1;stroke:none;stroke-width:0.01670331;stroke-miterlimit:4;stroke-dasharray:none;stroke-dashoffset:0;stroke-opacity:1"
       d="m 16.175863,17.331325 -3.037427,-1.75452 -9.22e-4,-1.647788 c -8.7e-4,-1.556135 0.0034,-1.645434 0.07642,-1.605468 0.04254,0.02327 1.419738,0.818218 3.060447,1.766538 l 2.983107,1.724219 0.01159,1.637968 c 0.0064,0.900882 -0.0036,1.636978 -0.0221,1.635769 -0.01853,-0.0012 -1.400526,-0.791732 -3.071112,-1.756718 z"
       id="path985"
       inkscape:connector-curvature="0"
       transform="matrix(0.26458333,0,0,0.26458333,55.469019,91.847243)" />
    <path
       style="fill:#f2ff43;fill-opacity:1;stroke:none;stroke-width:0.01670331;stroke-miterlimit:4;stroke-dasharray:none;stroke-dashoffset:0;stroke-opacity:1"
       d="m 9.8662236,15.558823 v -1.63107 l 1.4252624,-0.82196 1.425262,-0.821959 0.0116,1.622256 c 0.009,1.262023 -7.88e-4,1.633577 -0.04419,1.673235 -0.06674,0.06098 -2.7519606,1.610567 -2.7908853,1.610567 -0.014876,0 -0.027047,-0.733981 -0.027047,-1.631069 z"
       id="path987"
       inkscape:connector-curvature="0"
       transform="matrix(0.26458333,0,0,0.26458333,55.469019,91.847243)" />
    <path
       style="fill:#fdc000;fill-opacity:1;stroke:none;stroke-width:0.01670331;stroke-miterlimit:4;stroke-dasharray:none;stroke-dashoffset:0;stroke-opacity:1"
       d="m 16.253807,13.57423 c -1.762242,-1.019719 -3.239541,-1.854247 -3.282886,-1.854508 -0.111598,-6.72e-4 -0.377857,0.14001 -1.75525,0.92741 -0.668436,0.382118 -1.2931918,0.734496 -1.3883445,0.783063 l -0.1730051,0.0883 -0.6666842,-0.374421 C 8.2169615,12.711251 4.1895882,10.399912 3.8493142,10.195155 3.625737,10.06062 3.6225984,10.055899 3.7167317,9.9957212 4.4149925,9.5493389 8.6212229,7.1013082 15.524603,3.1235273 c 1.21534,-0.700288 2.583796,-1.4889361 3.041014,-1.7525512 0.457217,-0.2636151 0.854275,-0.4793002 0.882351,-0.4793002 0.08368,0 5.331091,3.0002361 11.920247,6.8154708 3.713518,2.1501915 3.994709,2.3171093 3.948825,2.3440573 -1.845083,1.083633 -5.039363,2.92815 -5.640684,3.257178 -0.216689,0.118567 -0.377299,0.179469 -0.434114,0.164612 -0.0496,-0.01297 -0.793662,-0.424234 -1.653475,-0.913919 l -1.563297,-0.890336 -0.985695,0.561585 c -0.542133,0.308871 -2.01448,1.155506 -3.271883,1.88141 -1.257402,0.725904 -2.291546,1.319084 -2.298097,1.318178 -0.0066,-9.07e-4 -1.453745,-0.835964 -3.215988,-1.855682 z"
       id="path991"
       inkscape:connector-curvature="0"
       transform="matrix(0.26458333,0,0,0.26458333,55.469019,91.847243)" />
    <path
       style="fill:#00a5fd;fill-opacity:1;stroke:none;stroke-width:0.01670331;stroke-miterlimit:4;stroke-dasharray:none;stroke-dashoffset:0;stroke-opacity:1"
       d="m 9.9003503,15.536732 0.011593,-1.618401 1.3921167,-0.802813 1.392116,-0.802814 0.01161,1.561286 c 0.0073,0.977292 -0.0049,1.59211 -0.03249,1.643694 -0.04806,0.0898 -2.658536,1.637448 -2.7619477,1.637448 -0.013522,0 -0.019369,-0.72828 -0.012993,-1.6184 z"
       id="path993"
       inkscape:connector-curvature="0"
       transform="matrix(0.26458333,0,0,0.26458333,55.469019,91.847243)" />
    <path
       style="fill:#00a5fd;fill-opacity:1;stroke:none;stroke-width:0.01670331;stroke-miterlimit:4;stroke-dasharray:none;stroke-dashoffset:0;stroke-opacity:1"
       d="m 17.8227,18.263084 c -0.75351,-0.43344 -2.105852,-1.213317 -3.005203,-1.73306 l -1.635185,-0.944988 -0.01159,-1.623535 c -0.0064,-0.892944 1.07e-4,-1.623534 0.01441,-1.623534 0.02069,0 2.865991,1.636071 5.631943,3.238408 l 0.419845,0.243219 0.01159,1.617944 c 0.0064,0.889869 -0.0036,1.61697 -0.0221,1.61578 -0.01853,-0.0012 -0.650199,-0.356795 -1.40371,-0.790234 z"
       id="path995"
       inkscape:connector-curvature="0"
       transform="matrix(0.26458333,0,0,0.26458333,55.469019,91.847243)" />
    <path
       style="fill:#00a5fd;fill-opacity:1;stroke:none;stroke-width:0.01670331;stroke-miterlimit:4;stroke-dasharray:none;stroke-dashoffset:0;stroke-opacity:1"
       d="m 19.711457,17.434142 0.01159,-1.62134 3.005204,-1.736318 c 1.652862,-0.954975 3.020364,-1.736813 3.038894,-1.737418 0.01853,-6.04e-4 0.02847,0.729205 0.0221,1.621798 l -0.01159,1.622897 -0.950175,0.547836 c -2.403024,1.385496 -5.090713,2.923884 -5.108262,2.923884 -0.01064,0 -0.01413,-0.729603 -0.0078,-1.621339 z"
       id="path997"
       inkscape:connector-curvature="0"
       transform="matrix(0.26458333,0,0,0.26458333,55.469019,91.847243)" />
    <path
       style="fill:#00a5fd;fill-opacity:1;stroke:none;stroke-width:0.01670331;stroke-miterlimit:4;stroke-dasharray:none;stroke-dashoffset:0;stroke-opacity:1"
       d="m 27.633807,16.369835 -1.370019,-0.784914 -0.01159,-1.623477 c -0.0064,-0.892912 6.35e-4,-1.623477 0.01558,-1.623477 0.01495,0 0.651587,0.359775 1.414758,0.7995 l 1.387584,0.7995 v 1.609082 c 0,0.884996 -0.01492,1.608997 -0.03315,1.608891 -0.01823,-8.8e-5 -0.649654,-0.353403 -1.403165,-0.785105 z"
       id="path999"
       inkscape:connector-curvature="0"
       transform="matrix(0.26458333,0,0,0.26458333,55.469019,91.847243)" />
    <path
       style="fill:#b800fd;fill-opacity:1;stroke:none;stroke-width:0.01670331;stroke-miterlimit:4;stroke-dasharray:none;stroke-dashoffset:0;stroke-opacity:1"
       d="M 13.036141,23.075412 C 9.5116557,21.04111 6.6227688,19.372956 6.6163926,19.368403 c -0.00638,-0.0046 -0.00638,-0.746342 0,-1.648419 l 0.011593,-1.64014 1.4584078,0.843872 c 0.8021242,0.46413 1.4919039,0.853072 1.5328437,0.864316 0.043567,0.01197 0.7452879,-0.367285 1.6921039,-0.914512 l 1.617668,-0.934956 3.213841,1.855937 c 1.767614,1.020765 3.246049,1.868295 3.285413,1.883401 0.04666,0.0179 1.205178,-0.627142 3.328491,-1.853257 2.910166,-1.680487 3.267159,-1.875284 3.353086,-1.829649 0.05289,0.02809 0.779504,0.445636 1.614695,0.927881 0.835192,0.482245 1.54136,0.876809 1.569262,0.876809 0.0279,0 0.723267,-0.387803 1.545255,-0.861786 0.821989,-0.473982 1.503208,-0.861786 1.513821,-0.861786 0.01061,0 0.01408,0.738336 0.0077,1.640747 l -0.01159,1.640748 -6.386058,3.689618 c -3.512332,2.029291 -6.415889,3.698011 -6.45235,3.708268 -0.03646,0.01026 -2.949961,-1.645781 -6.474446,-3.680083 z"
       id="path1001"
       inkscape:connector-curvature="0"
       transform="matrix(0.26458333,0,0,0.26458333,55.469019,91.847243)" />
  </g>
</svg>
